<?xml version="1.0" standalone="no"?>
 <!DOCTYPE svg PUBLIC "-//W3C//DTD SVG 1.1//EN" 
 "http://www.w3.org/Graphics/SVG/1.1/DTD/svg11.dtd"> 
<svg xmlns="http://www.w3.org/2000/svg" version="1.1" 
    width="29.7002cm" height="21.0007cm" viewBox="0 0 116930 82680 ">
<title>SVG Picture created as power-B.Cu.svg date 2015/12/04 15:04:19 </title>
  <desc>Picture generated by PCBNEW </desc>
<g style="fill:#000000; fill-opacity:1;stroke:#000000; stroke-opacity:1;
stroke-linecap:round; stroke-linejoin:round; "
 transform="translate(0 0) scale(1 1)">
</g>
<g style="fill:#000000; fill-opacity:0.0; 
stroke:#000000; stroke-width:-0.000393701; stroke-opacity:1; 
stroke-linecap:round; stroke-linejoin:round;">
</g>
<g style="fill:#000000; fill-opacity:1.0; 
stroke:#000000; stroke-width:0; stroke-opacity:1; 
stroke-linecap:round; stroke-linejoin:round;">
<circle cx="44000" cy="45125" r="590.5" /> 
</g>
<g style="fill:#000000; fill-opacity:1.0; 
stroke:#000000; stroke-width:39.3701; stroke-opacity:1; 
stroke-linecap:round; stroke-linejoin:round;">
</g>
<g style="fill:#000000; fill-opacity:1.0; 
stroke:#000000; stroke-width:0; stroke-opacity:1; 
stroke-linecap:round; stroke-linejoin:round;">
<circle cx="62875" cy="29375" r="590.5" /> 
</g>
<g style="fill:#000000; fill-opacity:1.0; 
stroke:#000000; stroke-width:39.3701; stroke-opacity:1; 
stroke-linecap:round; stroke-linejoin:round;">
</g>
<g style="fill:#000000; fill-opacity:1.0; 
stroke:#000000; stroke-width:0; stroke-opacity:1; 
stroke-linecap:round; stroke-linejoin:round;">
<circle cx="57875" cy="38750" r="433.071" /> 
</g>
<g style="fill:#000000; fill-opacity:1.0; 
stroke:#000000; stroke-width:39.3701; stroke-opacity:1; 
stroke-linecap:round; stroke-linejoin:round;">
</g>
<g style="fill:#000000; fill-opacity:1.0; 
stroke:#000000; stroke-width:0; stroke-opacity:1; 
stroke-linecap:round; stroke-linejoin:round;">
<circle cx="57875" cy="40750" r="433.071" /> 
</g>
<g style="fill:#000000; fill-opacity:1.0; 
stroke:#000000; stroke-width:39.3701; stroke-opacity:1; 
stroke-linecap:round; stroke-linejoin:round;">
</g>
<g style="fill:#000000; fill-opacity:1.0; 
stroke:#000000; stroke-width:1181.1; stroke-opacity:1; 
stroke-linecap:round; stroke-linejoin:round;">
</g>
<g style="fill:#000000; fill-opacity:0.0; 
stroke:#000000; stroke-width:1181.1; stroke-opacity:1; 
stroke-linecap:round; stroke-linejoin:round;">
<path d="M48200 39106
L48200 39893
" />
<path d="M45829 39106
L45829 39893
" />
<path d="M46616 41350
L47403 41350
" />
</g>
<g style="fill:#000000; fill-opacity:0.0; 
stroke:#000000; stroke-width:0; stroke-opacity:1; 
stroke-linecap:round; stroke-linejoin:round;">
</g>
<g style="fill:#000000; fill-opacity:1.0; 
stroke:#000000; stroke-width:0; stroke-opacity:1; 
stroke-linecap:round; stroke-linejoin:round;">
<polyline style="fill-rule:evenodd;"
points="54202,34854
53297,34854
53297,34145
54202,34145
54202,34854
" /> 
</g>
<g style="fill:#000000; fill-opacity:1.0; 
stroke:#000000; stroke-width:708.661; stroke-opacity:1; 
stroke-linecap:round; stroke-linejoin:round;">
</g>
<g style="fill:#000000; fill-opacity:0.0; 
stroke:#000000; stroke-width:708.661; stroke-opacity:1; 
stroke-linecap:round; stroke-linejoin:round;">
<path d="M52651 34000
L52848 34000
" />
<path d="M53651 33500
L53848 33500
" />
<path d="M52651 33000
L52848 33000
" />
<path d="M53651 32500
L53848 32500
" />
<path d="M52651 32000
L52848 32000
" />
<path d="M53651 31500
L53848 31500
" />
<path d="M52651 31000
L52848 31000
" />
</g>
<g style="fill:#000000; fill-opacity:0.0; 
stroke:#000000; stroke-width:1181.1; stroke-opacity:1; 
stroke-linecap:round; stroke-linejoin:round;">
<path d="M56625 34125
L56625 34125
" />
<path d="M56625 31375
L56625 31375
" />
</g>
<g style="fill:#000000; fill-opacity:0.0; 
stroke:#000000; stroke-width:708.661; stroke-opacity:1; 
stroke-linecap:round; stroke-linejoin:round;">
<path d="M60256 38100
L60493 38100
" />
<path d="M60256 39100
L60493 39100
" />
<path d="M60256 39900
L60493 39900
" />
<path d="M60256 40900
L60493 40900
" />
</g>
<g style="fill:#000000; fill-opacity:0.0; 
stroke:#000000; stroke-width:1181.1; stroke-opacity:1; 
stroke-linecap:round; stroke-linejoin:round;">
<path d="M61228 36900
L61621 36900
" />
<path d="M61228 42300
L61621 42300
" />
</g>
<g style="fill:#000000; fill-opacity:0.0; 
stroke:#000000; stroke-width:0; stroke-opacity:1; 
stroke-linecap:round; stroke-linejoin:round;">
</g>
<g style="fill:#000000; fill-opacity:1.0; 
stroke:#000000; stroke-width:0; stroke-opacity:1; 
stroke-linecap:round; stroke-linejoin:round;">
<polyline style="fill-rule:evenodd;"
points="64840,43660
64840,44340
64160,44340
64160,43660
64840,43660
" /> 
</g>
<g style="fill:#000000; fill-opacity:1.0; 
stroke:#000000; stroke-width:858.268; stroke-opacity:1; 
stroke-linecap:round; stroke-linejoin:round;">
</g>
<g style="fill:#000000; fill-opacity:0.0; 
stroke:#000000; stroke-width:858.268; stroke-opacity:1; 
stroke-linecap:round; stroke-linejoin:round;">
<path d="M64500 45000
L64500 45000
" />
<path d="M63500 44000
L63500 44000
" />
<path d="M63500 45000
L63500 45000
" />
<path d="M62500 44000
L62500 44000
" />
<path d="M62500 45000
L62500 45000
" />
<path d="M61500 44000
L61500 44000
" />
<path d="M61500 45000
L61500 45000
" />
<path d="M60500 44000
L60500 44000
" />
<path d="M60500 45000
L60500 45000
" />
</g>
<g style="fill:#000000; fill-opacity:1.0; 
stroke:#000000; stroke-width:0; stroke-opacity:1; 
stroke-linecap:round; stroke-linejoin:round;">
<circle cx="47000" cy="35088" r="718.5" /> 
</g>
<g style="fill:#000000; fill-opacity:1.0; 
stroke:#000000; stroke-width:39.3701; stroke-opacity:1; 
stroke-linecap:round; stroke-linejoin:round;">
</g>
<g style="fill:#000000; fill-opacity:1.0; 
stroke:#000000; stroke-width:0; stroke-opacity:1; 
stroke-linecap:round; stroke-linejoin:round;">
<circle cx="47000" cy="30415" r="718.5" /> 
</g>
<g style="fill:#000000; fill-opacity:1.0; 
stroke:#000000; stroke-width:39.3701; stroke-opacity:1; 
stroke-linecap:round; stroke-linejoin:round;">
</g>
<g style="fill:#000000; fill-opacity:1.0; 
stroke:#000000; stroke-width:0; stroke-opacity:1; 
stroke-linecap:round; stroke-linejoin:round;">
<polyline style="fill-rule:evenodd;"
points="49047,30645
49952,30645
49952,31354
49047,31354
49047,30645
" /> 
</g>
<g style="fill:#000000; fill-opacity:1.0; 
stroke:#000000; stroke-width:708.661; stroke-opacity:1; 
stroke-linecap:round; stroke-linejoin:round;">
</g>
<g style="fill:#000000; fill-opacity:0.0; 
stroke:#000000; stroke-width:708.661; stroke-opacity:1; 
stroke-linecap:round; stroke-linejoin:round;">
<path d="M50598 31500
L50401 31500
" />
<path d="M49598 32000
L49401 32000
" />
<path d="M50598 32500
L50401 32500
" />
<path d="M49598 33000
L49401 33000
" />
<path d="M50598 33500
L50401 33500
" />
<path d="M49598 34000
L49401 34000
" />
<path d="M50598 34500
L50401 34500
" />
</g>
<g style="fill:#000000; fill-opacity:1.0; 
stroke:#000000; stroke-width:0; stroke-opacity:1; 
stroke-linecap:round; stroke-linejoin:round;">
<circle cx="45625" cy="29750" r="492.126" /> 
</g>
<g style="fill:#000000; fill-opacity:1.0; 
stroke:#000000; stroke-width:39.3701; stroke-opacity:1; 
stroke-linecap:round; stroke-linejoin:round;">
</g>
<g style="fill:#000000; fill-opacity:1.0; 
stroke:#000000; stroke-width:0; stroke-opacity:1; 
stroke-linecap:round; stroke-linejoin:round;">
<circle cx="45625" cy="35625" r="492.126" /> 
</g>
<g style="fill:#000000; fill-opacity:1.0; 
stroke:#000000; stroke-width:39.3701; stroke-opacity:1; 
stroke-linecap:round; stroke-linejoin:round;">
</g>
<g style="fill:#000000; fill-opacity:1.0; 
stroke:#000000; stroke-width:0; stroke-opacity:1; 
stroke-linecap:round; stroke-linejoin:round;">
<polyline style="fill-rule:evenodd;"
points="53643,37981
53643,38768
52856,38768
52856,37981
53643,37981
" /> 
<circle cx="53250" cy="41375" r="452.756" /> 
</g>
<g style="fill:#000000; fill-opacity:1.0; 
stroke:#000000; stroke-width:39.3701; stroke-opacity:1; 
stroke-linecap:round; stroke-linejoin:round;">
</g>
<g style="fill:#000000; fill-opacity:1.0; 
stroke:#000000; stroke-width:0; stroke-opacity:1; 
stroke-linecap:round; stroke-linejoin:round;">
<circle cx="44000" cy="27750" r="590.5" /> 
</g>
<g style="fill:#000000; fill-opacity:1.0; 
stroke:#000000; stroke-width:39.3701; stroke-opacity:1; 
stroke-linecap:round; stroke-linejoin:round;">
</g>
<g style="fill:#000000; fill-opacity:1.0; 
stroke:#000000; stroke-width:157.48; stroke-opacity:1; 
stroke-linecap:round; stroke-linejoin:round;">
</g>
<g style="fill:#000000; fill-opacity:0.0; 
stroke:#000000; stroke-width:157.48; stroke-opacity:1; 
stroke-linecap:round; stroke-linejoin:round;">
<path d="M49500 31000
L52750 31000
" />
<path d="M50500 31500
L53750 31500
" />
<path d="M49500 32000
L52750 32000
" />
<path d="M50500 32500
L53750 32500
" />
<path d="M52750 33000
L49500 33000
" />
<path d="M53750 33500
L50500 33500
" />
<path d="M49500 34000
L52750 34000
" />
<path d="M50500 34500
L53750 34500
" />
</g>
<g style="fill:#000000; fill-opacity:0.0; 
stroke:#000000; stroke-width:354.331; stroke-opacity:1; 
stroke-linecap:round; stroke-linejoin:round;">
<path d="M60375 40900
L59125 40900
" />
<path d="M59125 40900
L59125 41000
" />
<path d="M57875 38750
L58625 38750
" />
<path d="M58625 38750
L59125 39250
" />
<path d="M59125 39250
L59125 41000
" />
<path d="M59875 44000
L60500 44000
" />
<path d="M59125 41000
L59125 43250
" />
<path d="M59125 43250
L59875 44000
" />
<path d="M61500 44000
L60500 44000
" />
<path d="M62500 44000
L61500 44000
" />
<path d="M63500 44000
L63000 44000
" />
<path d="M63000 44000
L62500 44000
" />
<path d="M64500 44000
L63500 44000
" />
<path d="M53250 38375
L53250 38500
" />
<path d="M53250 38500
L53500 38750
" />
<path d="M53500 38750
L53250 38375
" />
<path d="M57875 38750
L50250 38750
" />
<path d="M49500 39500
L48200 39500
" />
<path d="M50250 38750
L49500 39500
" />
</g>
<g style="fill:#000000; fill-opacity:1.0; 
stroke:#000000; stroke-width:196.85; stroke-opacity:1; 
stroke-linecap:round; stroke-linejoin:round;">
<polyline style="fill-rule:evenodd;"
points="65401,46401
42723,46401
42723,45162
59854,45162
59929,45341
60103,45534
60337,45645
60440,45603
60440,45059
60559,45059
60559,45603
60662,45645
60896,45534
61000,45420
61103,45534
61337,45645
61440,45603
61440,45059
61559,45059
61559,45603
61662,45645
61896,45534
62000,45420
62103,45534
62337,45645
62440,45603
62440,45059
62559,45059
62559,45603
62662,45645
62896,45534
63000,45420
63103,45534
63337,45645
63440,45603
63440,45059
63559,45059
63559,45603
63662,45645
63896,45534
64000,45420
64103,45534
64337,45645
64440,45603
64440,45059
64559,45059
64559,45603
64662,45645
64896,45534
65070,45341
65145,45162
65103,45059
64559,45059
64440,45059
63559,45059
63440,45059
62559,45059
62440,45059
61559,45059
61440,45059
60559,45059
60440,45059
59896,45059
59854,45162
42723,45162
42723,41162
45811,41162
45850,41290
46169,41290
46169,41409
45850,41409
45811,41537
45829,41611
45989,41892
46245,42091
46557,42176
46950,42176
46950,41668
47011,41608
47012,41605
47013,41607
47069,41663
47069,42176
47462,42176
47774,42091
48030,41892
48043,41869
52838,41869
52886,41976
53144,42069
53417,42057
53613,41976
53661,41869
53250,41458
52838,41869
48043,41869
48190,41611
48208,41537
48169,41409
47855,41409
47855,41290
48169,41290
48175,41269
52555,41269
52567,41542
52648,41738
52755,41786
53166,41375
53333,41375
53744,41786
53851,41738
53944,41480
53933,41230
57477,41230
57523,41334
57773,41424
58039,41412
58226,41334
58272,41230
57875,40833
57477,41230
53933,41230
53932,41207
53851,41011
53744,40963
53333,41375
53166,41375
52755,40963
52648,41011
52555,41269
48175,41269
48208,41162
48190,41088
48071,40880
52838,40880
53250,41291
53661,40880
53613,40773
53355,40680
53082,40692
52886,40773
52838,40880
48071,40880
48030,40807
47972,40762
48200,40807
48540,40740
48677,40648
57200,40648
57212,40914
57290,41101
57394,41147
57791,40750
57958,40750
58355,41147
58459,41101
58549,40851
58537,40585
58459,40398
58355,40352
57958,40750
57791,40750
57394,40352
57290,40398
57200,40648
48677,40648
48828,40547
49014,40269
57477,40269
57875,40666
58272,40269
58226,40165
57976,40075
57710,40087
57523,40165
57477,40269
49014,40269
49021,40259
49077,39975
49500,39975
49682,39939
49836,39836
50446,39225
57316,39225
57460,39369
57728,39481
58019,39481
58288,39370
58430,39228
58649,39446
58649,43250
58685,43432
58758,43541
58788,43586
59538,44336
59692,44439
59875,44475
59945,44475
59971,44514
60026,44551
59929,44658
59854,44837
59896,44940
60440,44940
60440,44933
60559,44933
60559,44940
61440,44940
61440,44933
61559,44933
61559,44940
62440,44940
62440,44933
62559,44933
62559,44940
63440,44940
63440,44933
63559,44933
63559,44940
64440,44940
64440,44933
64559,44933
64559,44940
65103,44940
65145,44837
65070,44658
65006,44587
65052,44558
65120,44458
65144,44340
65144,43660
65123,43549
65058,43447
64958,43379
64840,43355
64160,43355
64049,43376
63955,43436
63792,43327
63514,43272
63485,43272
63207,43327
63000,43466
62792,43327
62514,43272
62485,43272
62207,43327
62000,43466
61792,43327
61514,43272
61485,43272
61207,43327
61000,43466
60792,43327
60514,43272
60485,43272
60207,43327
60008,43460
59600,43053
59600,41473
59947,41473
59991,41503
60241,41552
60508,41552
60758,41503
60802,41473
61168,41473
60857,41558
60601,41757
60441,42038
60422,42112
60462,42240
60619,42240
60619,42359
60462,42359
60422,42487
60441,42561
60601,42842
60857,43041
61169,43126
61365,43126
61365,42653
61425,42594
61484,42653
61484,43126
61680,43126
61992,43041
62248,42842
62408,42561
62427,42487
62387,42359
62230,42359
62230,42240
62387,42240
62427,42112
62408,42038
62248,41757
61992,41558
61680,41473
61484,41473
61484,41946
61424,42005
61365,41946
61365,41473
61250,41473
61288,41465
61320,41443
61341,41410
61348,41375
61348,38625
61340,38586
61318,38554
61285,38533
61250,38526
60890,38526
60952,38475
61061,38271
61064,38250
61021,38159
60434,38159
60434,38166
60315,38166
60315,38159
59728,38159
59685,38250
59688,38271
59797,38475
59859,38526
59250,38526
59211,38534
59179,38556
59158,38589
59154,38607
58961,38413
58852,38340
58807,38310
58625,38274
58433,38274
58289,38130
58021,38018
57730,38018
57461,38129
57316,38274
53947,38274
53947,37981
53941,37949
59685,37949
59728,38040
60315,38040
60315,37509
60434,37509
60434,38040
61021,38040
61064,37949
61061,37928
60952,37724
60773,37577
60552,37509
60434,37509
60315,37509
60197,37509
59976,37577
59797,37724
59688,37928
59685,37949
53941,37949
53926,37870
53861,37769
53761,37701
53643,37677
52856,37677
52745,37698
52644,37763
52576,37863
52552,37981
52552,38274
50250,38274
50067,38310
49913,38413
49303,39024
49077,39024
49021,38740
48828,38452
48540,38259
48200,38192
47859,38259
47571,38452
47378,38740
47311,39081
47311,39918
47378,40259
47571,40547
47585,40556
47462,40523
47069,40523
47069,41036
47013,41091
47012,41094
47011,41092
46950,41031
46950,40523
46557,40523
46245,40608
45989,40807
45829,41088
45811,41162
42723,41162
42723,39047
45002,39047
45002,39440
45521,39440
45566,39486
45599,39499
45567,39513
45521,39559
45002,39559
45002,39952
45087,40264
45286,40520
45567,40680
45641,40698
45769,40659
45769,40355
45888,40355
45888,40659
46016,40698
46090,40680
46371,40520
46570,40264
46655,39952
46655,39559
46128,39559
46083,39513
46050,39500
46082,39486
46128,39440
46655,39440
46655,39047
46570,38735
46371,38479
46090,38319
46016,38301
45888,38340
45888,38644
45769,38644
45769,38340
45641,38301
45567,38319
45286,38479
45087,38735
45002,39047
42723,39047
42723,36712
60422,36712
60462,36840
60669,36840
60669,36959
60462,36959
60422,37087
60441,37161
60601,37442
60857,37641
61169,37726
61365,37726
61365,37293
61382,37286
61424,37244
61466,37286
61484,37293
61484,37726
61680,37726
61992,37641
62248,37442
62408,37161
62427,37087
62387,36959
62180,36959
62180,36840
62387,36840
62427,36712
62408,36638
62248,36357
61992,36158
61680,36073
61484,36073
61484,36506
61467,36513
61425,36555
61383,36513
61365,36506
61365,36073
61169,36073
60857,36158
60601,36357
60441,36638
60422,36712
42723,36712
42723,36148
45185,36148
45237,36258
45509,36358
45799,36346
46012,36258
46064,36148
45625,35708
45185,36148
42723,36148
42723,35509
44891,35509
44903,35799
44991,36012
45101,36064
45541,35625
45708,35625
46148,36064
46258,36012
46358,35740
46346,35450
46258,35237
46148,35185
45708,35625
45541,35625
45101,35185
44991,35237
44891,35509
42723,35509
42723,35101
45185,35101
45625,35541
46064,35101
46012,34991
45740,34891
45450,34903
45237,34991
45185,35101
42723,35101
42723,32000
48734,32000
48783,32249
48925,32461
48982,32500
48925,32538
48783,32750
48734,33000
48783,33249
48925,33461
48982,33500
48925,33538
48783,33750
48734,34000
48783,34249
48925,34461
49137,34603
49386,34652
49613,34652
49758,34623
49783,34749
49925,34961
50137,35103
50386,35152
50613,35152
50862,35103
51074,34961
51131,34877
52997,34877
53013,34964
53079,35066
53178,35134
53297,35158
54202,35158
54313,35137
54414,35072
54483,34972
54507,34854
54507,34145
54486,34035
54420,33933
54367,33897
54466,33749
54515,33500
54466,33250
54324,33038
54267,33000
54324,32961
54466,32749
54515,32500
54466,32250
54324,32038
54267,32000
54324,31961
54466,31749
54515,31500
54466,31250
54324,31038
54112,30896
53863,30847
53636,30847
53491,30876
53466,30750
53324,30538
53112,30396
52863,30347
52636,30347
52387,30396
52175,30538
52118,30622
50252,30622
50236,30535
50170,30433
50071,30365
49952,30341
49047,30341
48936,30362
48835,30427
48766,30527
48742,30645
48742,31354
48763,31464
48829,31566
48882,31602
48783,31750
48734,32000
42723,32000
42723,30273
45185,30273
45237,30383
45509,30483
45799,30471
46012,30383
46064,30273
45625,29833
45185,30273
42723,30273
42723,29634
44891,29634
44903,29924
44991,30137
45101,30189
45541,29750
45708,29750
46148,30189
46258,30137
46358,29865
46346,29575
46258,29362
46148,29310
45708,29750
45541,29750
45101,29310
44991,29362
44891,29634
42723,29634
42723,29226
45185,29226
45625,29666
46064,29226
46012,29116
45740,29016
45450,29028
45237,29116
45185,29226
42723,29226
42723,26473
65401,26473
65401,46401
" /> 
</g>
<g style="fill:#FFFFFF; fill-opacity:1.0; 
stroke:#FFFFFF; stroke-width:196.85; stroke-opacity:1; 
stroke-linecap:round; stroke-linejoin:round;">
</g>
<g style="fill:#FFFFFF; fill-opacity:1.0; 
stroke:#FFFFFF; stroke-width:0; stroke-opacity:1; 
stroke-linecap:round; stroke-linejoin:round;">
<circle cx="44000" cy="45125" r="68.8976" /> 
</g>
<g style="fill:#FFFFFF; fill-opacity:1.0; 
stroke:#FFFFFF; stroke-width:39.3701; stroke-opacity:1; 
stroke-linecap:round; stroke-linejoin:round;">
</g>
<g style="fill:#FFFFFF; fill-opacity:1.0; 
stroke:#FFFFFF; stroke-width:0; stroke-opacity:1; 
stroke-linecap:round; stroke-linejoin:round;">
<circle cx="62875" cy="29375" r="68.8976" /> 
</g>
<g style="fill:#FFFFFF; fill-opacity:1.0; 
stroke:#FFFFFF; stroke-width:39.3701; stroke-opacity:1; 
stroke-linecap:round; stroke-linejoin:round;">
</g>
<g style="fill:#FFFFFF; fill-opacity:1.0; 
stroke:#FFFFFF; stroke-width:0; stroke-opacity:1; 
stroke-linecap:round; stroke-linejoin:round;">
<circle cx="57875" cy="38750" r="68.8976" /> 
</g>
<g style="fill:#FFFFFF; fill-opacity:1.0; 
stroke:#FFFFFF; stroke-width:39.3701; stroke-opacity:1; 
stroke-linecap:round; stroke-linejoin:round;">
</g>
<g style="fill:#FFFFFF; fill-opacity:1.0; 
stroke:#FFFFFF; stroke-width:0; stroke-opacity:1; 
stroke-linecap:round; stroke-linejoin:round;">
<circle cx="57875" cy="40750" r="68.8976" /> 
</g>
<g style="fill:#FFFFFF; fill-opacity:1.0; 
stroke:#FFFFFF; stroke-width:39.3701; stroke-opacity:1; 
stroke-linecap:round; stroke-linejoin:round;">
</g>
<g style="fill:#FFFFFF; fill-opacity:1.0; 
stroke:#FFFFFF; stroke-width:0; stroke-opacity:1; 
stroke-linecap:round; stroke-linejoin:round;">
<circle cx="48200" cy="39500" r="68.8976" /> 
</g>
<g style="fill:#FFFFFF; fill-opacity:1.0; 
stroke:#FFFFFF; stroke-width:39.3701; stroke-opacity:1; 
stroke-linecap:round; stroke-linejoin:round;">
</g>
<g style="fill:#FFFFFF; fill-opacity:1.0; 
stroke:#FFFFFF; stroke-width:0; stroke-opacity:1; 
stroke-linecap:round; stroke-linejoin:round;">
<circle cx="45829" cy="39500" r="68.8976" /> 
</g>
<g style="fill:#FFFFFF; fill-opacity:1.0; 
stroke:#FFFFFF; stroke-width:39.3701; stroke-opacity:1; 
stroke-linecap:round; stroke-linejoin:round;">
</g>
<g style="fill:#FFFFFF; fill-opacity:1.0; 
stroke:#FFFFFF; stroke-width:0; stroke-opacity:1; 
stroke-linecap:round; stroke-linejoin:round;">
<circle cx="47010" cy="41350" r="68.8976" /> 
</g>
<g style="fill:#FFFFFF; fill-opacity:1.0; 
stroke:#FFFFFF; stroke-width:39.3701; stroke-opacity:1; 
stroke-linecap:round; stroke-linejoin:round;">
</g>
<g style="fill:#FFFFFF; fill-opacity:1.0; 
stroke:#FFFFFF; stroke-width:0; stroke-opacity:1; 
stroke-linecap:round; stroke-linejoin:round;">
<circle cx="48200" cy="39900" r="68.8976" /> 
</g>
<g style="fill:#FFFFFF; fill-opacity:1.0; 
stroke:#FFFFFF; stroke-width:39.3701; stroke-opacity:1; 
stroke-linecap:round; stroke-linejoin:round;">
</g>
<g style="fill:#FFFFFF; fill-opacity:1.0; 
stroke:#FFFFFF; stroke-width:0; stroke-opacity:1; 
stroke-linecap:round; stroke-linejoin:round;">
<circle cx="48200" cy="39100" r="68.8976" /> 
</g>
<g style="fill:#FFFFFF; fill-opacity:1.0; 
stroke:#FFFFFF; stroke-width:39.3701; stroke-opacity:1; 
stroke-linecap:round; stroke-linejoin:round;">
</g>
<g style="fill:#FFFFFF; fill-opacity:1.0; 
stroke:#FFFFFF; stroke-width:0; stroke-opacity:1; 
stroke-linecap:round; stroke-linejoin:round;">
<circle cx="45825" cy="39900" r="68.8976" /> 
</g>
<g style="fill:#FFFFFF; fill-opacity:1.0; 
stroke:#FFFFFF; stroke-width:39.3701; stroke-opacity:1; 
stroke-linecap:round; stroke-linejoin:round;">
</g>
<g style="fill:#FFFFFF; fill-opacity:1.0; 
stroke:#FFFFFF; stroke-width:0; stroke-opacity:1; 
stroke-linecap:round; stroke-linejoin:round;">
<circle cx="45825" cy="39100" r="68.8976" /> 
</g>
<g style="fill:#FFFFFF; fill-opacity:1.0; 
stroke:#FFFFFF; stroke-width:39.3701; stroke-opacity:1; 
stroke-linecap:round; stroke-linejoin:round;">
</g>
<g style="fill:#FFFFFF; fill-opacity:1.0; 
stroke:#FFFFFF; stroke-width:0; stroke-opacity:1; 
stroke-linecap:round; stroke-linejoin:round;">
<circle cx="46625" cy="41350" r="68.8976" /> 
</g>
<g style="fill:#FFFFFF; fill-opacity:1.0; 
stroke:#FFFFFF; stroke-width:39.3701; stroke-opacity:1; 
stroke-linecap:round; stroke-linejoin:round;">
</g>
<g style="fill:#FFFFFF; fill-opacity:1.0; 
stroke:#FFFFFF; stroke-width:0; stroke-opacity:1; 
stroke-linecap:round; stroke-linejoin:round;">
<circle cx="47400" cy="41350" r="68.8976" /> 
</g>
<g style="fill:#FFFFFF; fill-opacity:1.0; 
stroke:#FFFFFF; stroke-width:39.3701; stroke-opacity:1; 
stroke-linecap:round; stroke-linejoin:round;">
</g>
<g style="fill:#FFFFFF; fill-opacity:1.0; 
stroke:#FFFFFF; stroke-width:0; stroke-opacity:1; 
stroke-linecap:round; stroke-linejoin:round;">
<circle cx="53750" cy="34500" r="68.8976" /> 
</g>
<g style="fill:#FFFFFF; fill-opacity:1.0; 
stroke:#FFFFFF; stroke-width:39.3701; stroke-opacity:1; 
stroke-linecap:round; stroke-linejoin:round;">
</g>
<g style="fill:#FFFFFF; fill-opacity:1.0; 
stroke:#FFFFFF; stroke-width:0; stroke-opacity:1; 
stroke-linecap:round; stroke-linejoin:round;">
<circle cx="52750" cy="34000" r="68.8976" /> 
</g>
<g style="fill:#FFFFFF; fill-opacity:1.0; 
stroke:#FFFFFF; stroke-width:39.3701; stroke-opacity:1; 
stroke-linecap:round; stroke-linejoin:round;">
</g>
<g style="fill:#FFFFFF; fill-opacity:1.0; 
stroke:#FFFFFF; stroke-width:0; stroke-opacity:1; 
stroke-linecap:round; stroke-linejoin:round;">
<circle cx="53750" cy="33500" r="68.8976" /> 
</g>
<g style="fill:#FFFFFF; fill-opacity:1.0; 
stroke:#FFFFFF; stroke-width:39.3701; stroke-opacity:1; 
stroke-linecap:round; stroke-linejoin:round;">
</g>
<g style="fill:#FFFFFF; fill-opacity:1.0; 
stroke:#FFFFFF; stroke-width:0; stroke-opacity:1; 
stroke-linecap:round; stroke-linejoin:round;">
<circle cx="52750" cy="33000" r="68.8976" /> 
</g>
<g style="fill:#FFFFFF; fill-opacity:1.0; 
stroke:#FFFFFF; stroke-width:39.3701; stroke-opacity:1; 
stroke-linecap:round; stroke-linejoin:round;">
</g>
<g style="fill:#FFFFFF; fill-opacity:1.0; 
stroke:#FFFFFF; stroke-width:0; stroke-opacity:1; 
stroke-linecap:round; stroke-linejoin:round;">
<circle cx="53750" cy="32500" r="68.8976" /> 
</g>
<g style="fill:#FFFFFF; fill-opacity:1.0; 
stroke:#FFFFFF; stroke-width:39.3701; stroke-opacity:1; 
stroke-linecap:round; stroke-linejoin:round;">
</g>
<g style="fill:#FFFFFF; fill-opacity:1.0; 
stroke:#FFFFFF; stroke-width:0; stroke-opacity:1; 
stroke-linecap:round; stroke-linejoin:round;">
<circle cx="52750" cy="32000" r="68.8976" /> 
</g>
<g style="fill:#FFFFFF; fill-opacity:1.0; 
stroke:#FFFFFF; stroke-width:39.3701; stroke-opacity:1; 
stroke-linecap:round; stroke-linejoin:round;">
</g>
<g style="fill:#FFFFFF; fill-opacity:1.0; 
stroke:#FFFFFF; stroke-width:0; stroke-opacity:1; 
stroke-linecap:round; stroke-linejoin:round;">
<circle cx="53750" cy="31500" r="68.8976" /> 
</g>
<g style="fill:#FFFFFF; fill-opacity:1.0; 
stroke:#FFFFFF; stroke-width:39.3701; stroke-opacity:1; 
stroke-linecap:round; stroke-linejoin:round;">
</g>
<g style="fill:#FFFFFF; fill-opacity:1.0; 
stroke:#FFFFFF; stroke-width:0; stroke-opacity:1; 
stroke-linecap:round; stroke-linejoin:round;">
<circle cx="52750" cy="31000" r="68.8976" /> 
</g>
<g style="fill:#FFFFFF; fill-opacity:1.0; 
stroke:#FFFFFF; stroke-width:39.3701; stroke-opacity:1; 
stroke-linecap:round; stroke-linejoin:round;">
</g>
<g style="fill:#FFFFFF; fill-opacity:1.0; 
stroke:#FFFFFF; stroke-width:0; stroke-opacity:1; 
stroke-linecap:round; stroke-linejoin:round;">
<circle cx="56625" cy="34125" r="68.8976" /> 
</g>
<g style="fill:#FFFFFF; fill-opacity:1.0; 
stroke:#FFFFFF; stroke-width:39.3701; stroke-opacity:1; 
stroke-linecap:round; stroke-linejoin:round;">
</g>
<g style="fill:#FFFFFF; fill-opacity:1.0; 
stroke:#FFFFFF; stroke-width:0; stroke-opacity:1; 
stroke-linecap:round; stroke-linejoin:round;">
<circle cx="56625" cy="31375" r="68.8976" /> 
</g>
<g style="fill:#FFFFFF; fill-opacity:1.0; 
stroke:#FFFFFF; stroke-width:39.3701; stroke-opacity:1; 
stroke-linecap:round; stroke-linejoin:round;">
</g>
<g style="fill:#FFFFFF; fill-opacity:1.0; 
stroke:#FFFFFF; stroke-width:0; stroke-opacity:1; 
stroke-linecap:round; stroke-linejoin:round;">
<circle cx="60375" cy="38100" r="68.8976" /> 
</g>
<g style="fill:#FFFFFF; fill-opacity:1.0; 
stroke:#FFFFFF; stroke-width:39.3701; stroke-opacity:1; 
stroke-linecap:round; stroke-linejoin:round;">
</g>
<g style="fill:#FFFFFF; fill-opacity:1.0; 
stroke:#FFFFFF; stroke-width:0; stroke-opacity:1; 
stroke-linecap:round; stroke-linejoin:round;">
<circle cx="60375" cy="39100" r="68.8976" /> 
</g>
<g style="fill:#FFFFFF; fill-opacity:1.0; 
stroke:#FFFFFF; stroke-width:39.3701; stroke-opacity:1; 
stroke-linecap:round; stroke-linejoin:round;">
</g>
<g style="fill:#FFFFFF; fill-opacity:1.0; 
stroke:#FFFFFF; stroke-width:0; stroke-opacity:1; 
stroke-linecap:round; stroke-linejoin:round;">
<circle cx="60375" cy="39900" r="68.8976" /> 
</g>
<g style="fill:#FFFFFF; fill-opacity:1.0; 
stroke:#FFFFFF; stroke-width:39.3701; stroke-opacity:1; 
stroke-linecap:round; stroke-linejoin:round;">
</g>
<g style="fill:#FFFFFF; fill-opacity:1.0; 
stroke:#FFFFFF; stroke-width:0; stroke-opacity:1; 
stroke-linecap:round; stroke-linejoin:round;">
<circle cx="60375" cy="40900" r="68.8976" /> 
</g>
<g style="fill:#FFFFFF; fill-opacity:1.0; 
stroke:#FFFFFF; stroke-width:39.3701; stroke-opacity:1; 
stroke-linecap:round; stroke-linejoin:round;">
</g>
<g style="fill:#FFFFFF; fill-opacity:1.0; 
stroke:#FFFFFF; stroke-width:0; stroke-opacity:1; 
stroke-linecap:round; stroke-linejoin:round;">
<circle cx="61425" cy="36900" r="68.8976" /> 
</g>
<g style="fill:#FFFFFF; fill-opacity:1.0; 
stroke:#FFFFFF; stroke-width:39.3701; stroke-opacity:1; 
stroke-linecap:round; stroke-linejoin:round;">
</g>
<g style="fill:#FFFFFF; fill-opacity:1.0; 
stroke:#FFFFFF; stroke-width:0; stroke-opacity:1; 
stroke-linecap:round; stroke-linejoin:round;">
<circle cx="61425" cy="42300" r="68.8976" /> 
</g>
<g style="fill:#FFFFFF; fill-opacity:1.0; 
stroke:#FFFFFF; stroke-width:39.3701; stroke-opacity:1; 
stroke-linecap:round; stroke-linejoin:round;">
</g>
<g style="fill:#FFFFFF; fill-opacity:1.0; 
stroke:#FFFFFF; stroke-width:0; stroke-opacity:1; 
stroke-linecap:round; stroke-linejoin:round;">
<circle cx="61125" cy="36900" r="68.8976" /> 
</g>
<g style="fill:#FFFFFF; fill-opacity:1.0; 
stroke:#FFFFFF; stroke-width:39.3701; stroke-opacity:1; 
stroke-linecap:round; stroke-linejoin:round;">
</g>
<g style="fill:#FFFFFF; fill-opacity:1.0; 
stroke:#FFFFFF; stroke-width:0; stroke-opacity:1; 
stroke-linecap:round; stroke-linejoin:round;">
<circle cx="61725" cy="36900" r="68.8976" /> 
</g>
<g style="fill:#FFFFFF; fill-opacity:1.0; 
stroke:#FFFFFF; stroke-width:39.3701; stroke-opacity:1; 
stroke-linecap:round; stroke-linejoin:round;">
</g>
<g style="fill:#FFFFFF; fill-opacity:1.0; 
stroke:#FFFFFF; stroke-width:0; stroke-opacity:1; 
stroke-linecap:round; stroke-linejoin:round;">
<circle cx="61075" cy="42300" r="68.8976" /> 
</g>
<g style="fill:#FFFFFF; fill-opacity:1.0; 
stroke:#FFFFFF; stroke-width:39.3701; stroke-opacity:1; 
stroke-linecap:round; stroke-linejoin:round;">
</g>
<g style="fill:#FFFFFF; fill-opacity:1.0; 
stroke:#FFFFFF; stroke-width:0; stroke-opacity:1; 
stroke-linecap:round; stroke-linejoin:round;">
<circle cx="61775" cy="42300" r="68.8976" /> 
</g>
<g style="fill:#FFFFFF; fill-opacity:1.0; 
stroke:#FFFFFF; stroke-width:39.3701; stroke-opacity:1; 
stroke-linecap:round; stroke-linejoin:round;">
</g>
<g style="fill:#FFFFFF; fill-opacity:1.0; 
stroke:#FFFFFF; stroke-width:0; stroke-opacity:1; 
stroke-linecap:round; stroke-linejoin:round;">
<circle cx="64500" cy="44000" r="68.8976" /> 
</g>
<g style="fill:#FFFFFF; fill-opacity:1.0; 
stroke:#FFFFFF; stroke-width:39.3701; stroke-opacity:1; 
stroke-linecap:round; stroke-linejoin:round;">
</g>
<g style="fill:#FFFFFF; fill-opacity:1.0; 
stroke:#FFFFFF; stroke-width:0; stroke-opacity:1; 
stroke-linecap:round; stroke-linejoin:round;">
<circle cx="64500" cy="45000" r="68.8976" /> 
</g>
<g style="fill:#FFFFFF; fill-opacity:1.0; 
stroke:#FFFFFF; stroke-width:39.3701; stroke-opacity:1; 
stroke-linecap:round; stroke-linejoin:round;">
</g>
<g style="fill:#FFFFFF; fill-opacity:1.0; 
stroke:#FFFFFF; stroke-width:0; stroke-opacity:1; 
stroke-linecap:round; stroke-linejoin:round;">
<circle cx="63500" cy="44000" r="68.8976" /> 
</g>
<g style="fill:#FFFFFF; fill-opacity:1.0; 
stroke:#FFFFFF; stroke-width:39.3701; stroke-opacity:1; 
stroke-linecap:round; stroke-linejoin:round;">
</g>
<g style="fill:#FFFFFF; fill-opacity:1.0; 
stroke:#FFFFFF; stroke-width:0; stroke-opacity:1; 
stroke-linecap:round; stroke-linejoin:round;">
<circle cx="63500" cy="45000" r="68.8976" /> 
</g>
<g style="fill:#FFFFFF; fill-opacity:1.0; 
stroke:#FFFFFF; stroke-width:39.3701; stroke-opacity:1; 
stroke-linecap:round; stroke-linejoin:round;">
</g>
<g style="fill:#FFFFFF; fill-opacity:1.0; 
stroke:#FFFFFF; stroke-width:0; stroke-opacity:1; 
stroke-linecap:round; stroke-linejoin:round;">
<circle cx="62500" cy="44000" r="68.8976" /> 
</g>
<g style="fill:#FFFFFF; fill-opacity:1.0; 
stroke:#FFFFFF; stroke-width:39.3701; stroke-opacity:1; 
stroke-linecap:round; stroke-linejoin:round;">
</g>
<g style="fill:#FFFFFF; fill-opacity:1.0; 
stroke:#FFFFFF; stroke-width:0; stroke-opacity:1; 
stroke-linecap:round; stroke-linejoin:round;">
<circle cx="62500" cy="45000" r="68.8976" /> 
</g>
<g style="fill:#FFFFFF; fill-opacity:1.0; 
stroke:#FFFFFF; stroke-width:39.3701; stroke-opacity:1; 
stroke-linecap:round; stroke-linejoin:round;">
</g>
<g style="fill:#FFFFFF; fill-opacity:1.0; 
stroke:#FFFFFF; stroke-width:0; stroke-opacity:1; 
stroke-linecap:round; stroke-linejoin:round;">
<circle cx="61500" cy="44000" r="68.8976" /> 
</g>
<g style="fill:#FFFFFF; fill-opacity:1.0; 
stroke:#FFFFFF; stroke-width:39.3701; stroke-opacity:1; 
stroke-linecap:round; stroke-linejoin:round;">
</g>
<g style="fill:#FFFFFF; fill-opacity:1.0; 
stroke:#FFFFFF; stroke-width:0; stroke-opacity:1; 
stroke-linecap:round; stroke-linejoin:round;">
<circle cx="61500" cy="45000" r="68.8976" /> 
</g>
<g style="fill:#FFFFFF; fill-opacity:1.0; 
stroke:#FFFFFF; stroke-width:39.3701; stroke-opacity:1; 
stroke-linecap:round; stroke-linejoin:round;">
</g>
<g style="fill:#FFFFFF; fill-opacity:1.0; 
stroke:#FFFFFF; stroke-width:0; stroke-opacity:1; 
stroke-linecap:round; stroke-linejoin:round;">
<circle cx="60500" cy="44000" r="68.8976" /> 
</g>
<g style="fill:#FFFFFF; fill-opacity:1.0; 
stroke:#FFFFFF; stroke-width:39.3701; stroke-opacity:1; 
stroke-linecap:round; stroke-linejoin:round;">
</g>
<g style="fill:#FFFFFF; fill-opacity:1.0; 
stroke:#FFFFFF; stroke-width:0; stroke-opacity:1; 
stroke-linecap:round; stroke-linejoin:round;">
<circle cx="60500" cy="45000" r="68.8976" /> 
</g>
<g style="fill:#FFFFFF; fill-opacity:1.0; 
stroke:#FFFFFF; stroke-width:39.3701; stroke-opacity:1; 
stroke-linecap:round; stroke-linejoin:round;">
</g>
<g style="fill:#FFFFFF; fill-opacity:1.0; 
stroke:#FFFFFF; stroke-width:0; stroke-opacity:1; 
stroke-linecap:round; stroke-linejoin:round;">
<circle cx="47000" cy="35088" r="68.8976" /> 
</g>
<g style="fill:#FFFFFF; fill-opacity:1.0; 
stroke:#FFFFFF; stroke-width:39.3701; stroke-opacity:1; 
stroke-linecap:round; stroke-linejoin:round;">
</g>
<g style="fill:#FFFFFF; fill-opacity:1.0; 
stroke:#FFFFFF; stroke-width:0; stroke-opacity:1; 
stroke-linecap:round; stroke-linejoin:round;">
<circle cx="47000" cy="30415" r="68.8976" /> 
</g>
<g style="fill:#FFFFFF; fill-opacity:1.0; 
stroke:#FFFFFF; stroke-width:39.3701; stroke-opacity:1; 
stroke-linecap:round; stroke-linejoin:round;">
</g>
<g style="fill:#FFFFFF; fill-opacity:1.0; 
stroke:#FFFFFF; stroke-width:0; stroke-opacity:1; 
stroke-linecap:round; stroke-linejoin:round;">
<circle cx="49500" cy="31000" r="68.8976" /> 
</g>
<g style="fill:#FFFFFF; fill-opacity:1.0; 
stroke:#FFFFFF; stroke-width:39.3701; stroke-opacity:1; 
stroke-linecap:round; stroke-linejoin:round;">
</g>
<g style="fill:#FFFFFF; fill-opacity:1.0; 
stroke:#FFFFFF; stroke-width:0; stroke-opacity:1; 
stroke-linecap:round; stroke-linejoin:round;">
<circle cx="50500" cy="31500" r="68.8976" /> 
</g>
<g style="fill:#FFFFFF; fill-opacity:1.0; 
stroke:#FFFFFF; stroke-width:39.3701; stroke-opacity:1; 
stroke-linecap:round; stroke-linejoin:round;">
</g>
<g style="fill:#FFFFFF; fill-opacity:1.0; 
stroke:#FFFFFF; stroke-width:0; stroke-opacity:1; 
stroke-linecap:round; stroke-linejoin:round;">
<circle cx="49500" cy="32000" r="68.8976" /> 
</g>
<g style="fill:#FFFFFF; fill-opacity:1.0; 
stroke:#FFFFFF; stroke-width:39.3701; stroke-opacity:1; 
stroke-linecap:round; stroke-linejoin:round;">
</g>
<g style="fill:#FFFFFF; fill-opacity:1.0; 
stroke:#FFFFFF; stroke-width:0; stroke-opacity:1; 
stroke-linecap:round; stroke-linejoin:round;">
<circle cx="50500" cy="32500" r="68.8976" /> 
</g>
<g style="fill:#FFFFFF; fill-opacity:1.0; 
stroke:#FFFFFF; stroke-width:39.3701; stroke-opacity:1; 
stroke-linecap:round; stroke-linejoin:round;">
</g>
<g style="fill:#FFFFFF; fill-opacity:1.0; 
stroke:#FFFFFF; stroke-width:0; stroke-opacity:1; 
stroke-linecap:round; stroke-linejoin:round;">
<circle cx="49500" cy="33000" r="68.8976" /> 
</g>
<g style="fill:#FFFFFF; fill-opacity:1.0; 
stroke:#FFFFFF; stroke-width:39.3701; stroke-opacity:1; 
stroke-linecap:round; stroke-linejoin:round;">
</g>
<g style="fill:#FFFFFF; fill-opacity:1.0; 
stroke:#FFFFFF; stroke-width:0; stroke-opacity:1; 
stroke-linecap:round; stroke-linejoin:round;">
<circle cx="50500" cy="33500" r="68.8976" /> 
</g>
<g style="fill:#FFFFFF; fill-opacity:1.0; 
stroke:#FFFFFF; stroke-width:39.3701; stroke-opacity:1; 
stroke-linecap:round; stroke-linejoin:round;">
</g>
<g style="fill:#FFFFFF; fill-opacity:1.0; 
stroke:#FFFFFF; stroke-width:0; stroke-opacity:1; 
stroke-linecap:round; stroke-linejoin:round;">
<circle cx="49500" cy="34000" r="68.8976" /> 
</g>
<g style="fill:#FFFFFF; fill-opacity:1.0; 
stroke:#FFFFFF; stroke-width:39.3701; stroke-opacity:1; 
stroke-linecap:round; stroke-linejoin:round;">
</g>
<g style="fill:#FFFFFF; fill-opacity:1.0; 
stroke:#FFFFFF; stroke-width:0; stroke-opacity:1; 
stroke-linecap:round; stroke-linejoin:round;">
<circle cx="50500" cy="34500" r="68.8976" /> 
</g>
<g style="fill:#FFFFFF; fill-opacity:1.0; 
stroke:#FFFFFF; stroke-width:39.3701; stroke-opacity:1; 
stroke-linecap:round; stroke-linejoin:round;">
</g>
<g style="fill:#FFFFFF; fill-opacity:1.0; 
stroke:#FFFFFF; stroke-width:0; stroke-opacity:1; 
stroke-linecap:round; stroke-linejoin:round;">
<circle cx="45625" cy="29750" r="68.8976" /> 
</g>
<g style="fill:#FFFFFF; fill-opacity:1.0; 
stroke:#FFFFFF; stroke-width:39.3701; stroke-opacity:1; 
stroke-linecap:round; stroke-linejoin:round;">
</g>
<g style="fill:#FFFFFF; fill-opacity:1.0; 
stroke:#FFFFFF; stroke-width:0; stroke-opacity:1; 
stroke-linecap:round; stroke-linejoin:round;">
<circle cx="45625" cy="35625" r="68.8976" /> 
</g>
<g style="fill:#FFFFFF; fill-opacity:1.0; 
stroke:#FFFFFF; stroke-width:39.3701; stroke-opacity:1; 
stroke-linecap:round; stroke-linejoin:round;">
</g>
<g style="fill:#FFFFFF; fill-opacity:1.0; 
stroke:#FFFFFF; stroke-width:0; stroke-opacity:1; 
stroke-linecap:round; stroke-linejoin:round;">
<circle cx="53250" cy="38375" r="68.8976" /> 
</g>
<g style="fill:#FFFFFF; fill-opacity:1.0; 
stroke:#FFFFFF; stroke-width:39.3701; stroke-opacity:1; 
stroke-linecap:round; stroke-linejoin:round;">
</g>
<g style="fill:#FFFFFF; fill-opacity:1.0; 
stroke:#FFFFFF; stroke-width:0; stroke-opacity:1; 
stroke-linecap:round; stroke-linejoin:round;">
<circle cx="53250" cy="41375" r="68.8976" /> 
</g>
<g style="fill:#FFFFFF; fill-opacity:1.0; 
stroke:#FFFFFF; stroke-width:39.3701; stroke-opacity:1; 
stroke-linecap:round; stroke-linejoin:round;">
</g>
<g style="fill:#FFFFFF; fill-opacity:1.0; 
stroke:#FFFFFF; stroke-width:0; stroke-opacity:1; 
stroke-linecap:round; stroke-linejoin:round;">
<circle cx="44000" cy="27750" r="68.8976" /> 
</g>
<g style="fill:#FFFFFF; fill-opacity:1.0; 
stroke:#FFFFFF; stroke-width:39.3701; stroke-opacity:1; 
stroke-linecap:round; stroke-linejoin:round;">
</g>
<g style="fill:#000000; fill-opacity:1.0; 
stroke:#000000; stroke-width:39.3701; stroke-opacity:1; 
stroke-linecap:round; stroke-linejoin:round;">
</g> 
</svg>
